<svg xmlns="http://www.w3.org/2000/svg" viewBox="0 0 64 64" width="64" height="64">
  <!-- 渐变定义 -->
  <defs>
    <linearGradient id="bgGradient" x1="0%" y1="0%" x2="100%" y2="100%">
      <stop offset="0%" style="stop-color:#667eea;stop-opacity:1" />
      <stop offset="50%" style="stop-color:#764ba2;stop-opacity:1" />
      <stop offset="100%" style="stop-color:#5a67d8;stop-opacity:1" />
    </linearGradient>
    <linearGradient id="cloudGradient" x1="0%" y1="0%" x2="100%" y2="100%">
      <stop offset="0%" style="stop-color:#ffffff;stop-opacity:0.98" />
      <stop offset="50%" style="stop-color:#f7fafc;stop-opacity:0.92" />
      <stop offset="100%" style="stop-color:#edf2f7;stop-opacity:0.88" />
    </linearGradient>
    <linearGradient id="arrowGradient" x1="0%" y1="0%" x2="100%" y2="100%">
      <stop offset="0%" style="stop-color:#ffffff;stop-opacity:1" />
      <stop offset="100%" style="stop-color:#e2e8f0;stop-opacity:0.95" />
    </linearGradient>
    <radialGradient id="glowEffect" cx="50%" cy="30%" r="60%">
      <stop offset="0%" style="stop-color:#ffffff;stop-opacity:0.4" />
      <stop offset="100%" style="stop-color:#ffffff;stop-opacity:0" />
    </radialGradient>
  </defs>
  
  <!-- 外层阴影 -->
  <circle cx="32" cy="34" r="28" fill="#000000" opacity="0.15"/>
  
  <!-- 背景圆形 -->
  <circle cx="32" cy="32" r="30" fill="url(#bgGradient)" stroke="#4a5568" stroke-width="1.5"/>
  
  <!-- 光效背景 -->
  <circle cx="32" cy="32" r="28" fill="url(#glowEffect)"/>
  
  <!-- 云朵形状 (更精细的云朵) -->
  <g transform="translate(32, 25)">
    <!-- 主云朵 -->
    <ellipse cx="0" cy="0" rx="16" ry="8" fill="url(#cloudGradient)" opacity="0.95"/>
    <!-- 云朵细节 -->
    <circle cx="-10" cy="-2" r="6" fill="url(#cloudGradient)" opacity="0.9"/>
    <circle cx="8" cy="-3" r="7" fill="url(#cloudGradient)" opacity="0.9"/>
    <circle cx="-2" cy="-5" r="5" fill="url(#cloudGradient)" opacity="0.85"/>
    <circle cx="12" cy="2" r="4" fill="url(#cloudGradient)" opacity="0.8"/>
    <circle cx="-14" cy="3" r="4" fill="url(#cloudGradient)" opacity="0.8"/>
  </g>
  
  <!-- 下载箭头 (更精细) -->
  <g transform="translate(32, 42)">
    <!-- 箭头主体 -->
    <rect x="-2" y="-12" width="4" height="16" fill="url(#arrowGradient)" rx="2"/>
    <!-- 箭头头部 -->
    <path d="M-8 0 L0 10 L8 0 Z" fill="url(#arrowGradient)"/>
    <!-- 箭头内部高光 -->
    <rect x="-1" y="-12" width="2" height="14" fill="#ffffff" opacity="0.6" rx="1"/>
    <path d="M-6 0 L0 8 L6 0 Z" fill="#ffffff" opacity="0.4"/>
  </g>
  
  <!-- 装饰性的文件图标 -->
  <g transform="translate(16, 48)">
    <rect x="0" y="0" width="6" height="8" fill="#ffffff" opacity="0.8" rx="1"/>
    <rect x="1" y="2" width="4" height="1" fill="#667eea" opacity="0.6"/>
    <rect x="1" y="4" width="3" height="1" fill="#667eea" opacity="0.5"/>
    <rect x="1" y="6" width="4" height="1" fill="#667eea" opacity="0.4"/>
  </g>
  
  <g transform="translate(42, 48)">
    <rect x="0" y="0" width="6" height="8" fill="#ffffff" opacity="0.8" rx="1"/>
    <rect x="1" y="2" width="4" height="1" fill="#764ba2" opacity="0.6"/>
    <rect x="1" y="4" width="3" height="1" fill="#764ba2" opacity="0.5"/>
    <rect x="1" y="6" width="4" height="1" fill="#764ba2" opacity="0.4"/>
  </g>
  
  <!-- 装饰性的小圆点 (代表更多文件) -->
  <circle cx="12" cy="52" r="1.5" fill="#ffffff" opacity="0.7"/>
  <circle cx="20" cy="54" r="1" fill="#ffffff" opacity="0.6"/>
  <circle cx="44" cy="54" r="1" fill="#ffffff" opacity="0.6"/>
  <circle cx="52" cy="52" r="1.5" fill="#ffffff" opacity="0.7"/>
  
  <!-- 顶部装饰光点 -->
  <circle cx="20" cy="12" r="2" fill="#ffffff" opacity="0.3"/>
  <circle cx="44" cy="10" r="1.5" fill="#ffffff" opacity="0.25"/>
  <circle cx="32" cy="8" r="1" fill="#ffffff" opacity="0.4"/>
  
  <!-- 边缘高光 -->
  <circle cx="32" cy="32" r="29" fill="none" stroke="#ffffff" stroke-width="1" opacity="0.2"/>
</svg> 